{
    "asset" : {
        "generator" : "Khronos glTF Blender I/O v1.4.40",
        "version" : "2.0"
    },
    "scene" : 0,
    "scenes" : [
        {
            "name" : "Scene",
            "nodes" : [
                0,
                1,
                2,
                3,
                4,
                5,
                6,
                7,
                8,
                9,
                10,
                11,
                12
            ]
        }
    ],
    "nodes" : [
        {
            "mesh" : 0,
            "name" : "seat",
            "scale" : [
                0.2770279347896576,
                0.018660565838217735,
                0.2770279347896576
            ],
            "translation" : [
                -1.364645004272461,
                0.5793353915214539,
                4.3623127937316895
            ]
        },
        {
            "mesh" : 1,
            "name" : "glasplanes",
            "scale" : [
                0.010130563750863075,
                0.9180085062980652,
                0.5999108552932739
            ],
            "translation" : [
                -1.2473969459533691,
                1.3973925113677979,
                2.7736752033233643
            ]
        },
        {
            "mesh" : 2,
            "name" : "screws",
            "scale" : [
                0.0885034129023552,
                0.057055141776800156,
                0.04328205808997154
            ],
            "translation" : [
                -1.1461238861083984,
                1.3962750434875488,
                3.228828191757202
            ]
        },
        {
            "mesh" : 3,
            "name" : "poster",
            "scale" : [
                0.7581907510757446,
                0.9089184999465942,
                0.03419267386198044
            ],
            "translation" : [
                -0.6535735130310059,
                1.3945543766021729,
                5.501641273498535
            ]
        },
        {
            "mesh" : 4,
            "name" : "roof",
            "scale" : [
                1.2147756814956665,
                1.3000000715255737,
                2.137934446334839
            ],
            "translation" : [
                -0.6280012130737305,
                2.622882127761841,
                3.5516412258148193
            ]
        },
        {
            "mesh" : 5,
            "name" : "mainbody",
            "rotation" : [
                -0.7071068286895752,
                0,
                0,
                0.7071068286895752
            ],
            "scale" : [
                0.04428328201174736,
                0.1588619500398636,
                0.0650000050663948
            ],
            "translation" : [
                -0.8379124999046326,
                1.3584496974945068,
                3.5516412258148193
            ]
        },
        {
            "name" : "Camera",
            "rotation" : [
                0.19475410878658295,
                0.7520248889923096,
                -0.5761348605155945,
                0.2541614770889282
            ],
            "translation" : [
                5.496054649353027,
                4.201695442199707,
                -5.046605587005615
            ]
        },
        {
            "mesh" : 6,
            "name" : "trashcan",
            "rotation" : [
                0,
                -0.9238796234130859,
                0,
                0.38268348574638367
            ],
            "scale" : [
                0.2665511965751648,
                0.2665511965751648,
                0.2665511965751648
            ],
            "translation" : [
                -0.5652318000793457,
                0,
                0.6261028051376343
            ]
        },
        {
            "mesh" : 7,
            "name" : "trashcanmetal",
            "rotation" : [
                0,
                -0.9238796234130859,
                0,
                0.38268348574638367
            ],
            "scale" : [
                0.2665511965751648,
                0.2665511965751648,
                0.2665511965751648
            ],
            "translation" : [
                -0.5652318000793457,
                0,
                0.6261028051376343
            ]
        },
        {
            "mesh" : 8,
            "name" : "trashcantorus",
            "rotation" : [
                0,
                -0.9238796234130859,
                0,
                0.38268348574638367
            ],
            "scale" : [
                0.2665511965751648,
                0.2665511965751648,
                0.2665511965751648
            ],
            "translation" : [
                -0.5652318000793457,
                0,
                0.6261028051376343
            ]
        },
        {
            "mesh" : 9,
            "name" : "sign",
            "rotation" : [
                0.6088158488273621,
                0.6088158488273621,
                -0.35964325070381165,
                -0.35964328050613403
            ],
            "scale" : [
                0.30158716440200806,
                0.30158719420433044,
                0.30158719420433044
            ],
            "translation" : [
                1.10175359249115,
                2.045633554458618,
                5.4007182121276855
            ]
        },
        {
            "mesh" : 10,
            "name" : "shield",
            "rotation" : [
                0,
                0.5086119771003723,
                0,
                0.8609958291053772
            ],
            "scale" : [
                0.03999999910593033,
                1.2000000476837158,
                0.03999999910593033
            ],
            "translation" : [
                1.0771976709365845,
                1.2000001668930054,
                5.445279598236084
            ]
        },
        {
            "mesh" : 11,
            "name" : "trashcanwood",
            "rotation" : [
                0,
                -0.9238796234130859,
                0,
                0.38268348574638367
            ],
            "scale" : [
                0.2665511965751648,
                0.2665511965751648,
                0.2665511965751648
            ],
            "translation" : [
                -0.5652318000793457,
                0,
                0.6261028051376343
            ]
        }
    ],
    "meshes" : [
        {
            "name" : "Cube.061",
            "primitives" : [
                {
                    "attributes" : {
                        "POSITION" : 0,
                        "NORMAL" : 1
                    },
                    "indices" : 2
                }
            ]
        },
        {
            "name" : "Cube.040",
            "primitives" : [
                {
                    "attributes" : {
                        "POSITION" : 3,
                        "NORMAL" : 4
                    },
                    "indices" : 5
                }
            ]
        },
        {
            "name" : "Cube.016",
            "primitives" : [
                {
                    "attributes" : {
                        "POSITION" : 6,
                        "NORMAL" : 7
                    },
                    "indices" : 8
                }
            ]
        },
        {
            "name" : "Cube.015",
            "primitives" : [
                {
                    "attributes" : {
                        "POSITION" : 9,
                        "NORMAL" : 10
                    },
                    "indices" : 11
                }
            ]
        },
        {
            "name" : "Plane.005",
            "primitives" : [
                {
                    "attributes" : {
                        "POSITION" : 12,
                        "NORMAL" : 13
                    },
                    "indices" : 14
                }
            ]
        },
        {
            "name" : "Cube.014",
            "primitives" : [
                {
                    "attributes" : {
                        "POSITION" : 15,
                        "NORMAL" : 16
                    },
                    "indices" : 17
                }
            ]
        },
        {
            "name" : "Torus.008",
            "primitives" : [
                {
                    "attributes" : {
                        "POSITION" : 18,
                        "NORMAL" : 19
                    },
                    "indices" : 20
                }
            ]
        },
        {
            "name" : "Torus.007",
            "primitives" : [
                {
                    "attributes" : {
                        "POSITION" : 21,
                        "NORMAL" : 22
                    },
                    "indices" : 23
                }
            ]
        },
        {
            "name" : "Torus.006",
            "primitives" : [
                {
                    "attributes" : {
                        "POSITION" : 24,
                        "NORMAL" : 25
                    },
                    "indices" : 26
                }
            ]
        },
        {
            "name" : "Circle.006",
            "primitives" : [
                {
                    "attributes" : {
                        "POSITION" : 27,
                        "NORMAL" : 28
                    },
                    "indices" : 29
                }
            ]
        },
        {
            "name" : "Cylinder.005",
            "primitives" : [
                {
                    "attributes" : {
                        "POSITION" : 30,
                        "NORMAL" : 31
                    },
                    "indices" : 32
                }
            ]
        },
        {
            "name" : "Torus.004",
            "primitives" : [
                {
                    "attributes" : {
                        "POSITION" : 33,
                        "NORMAL" : 34
                    },
                    "indices" : 35
                }
            ]
        }
    ],
    "accessors" : [
        {
            "bufferView" : 0,
            "componentType" : 5126,
            "count" : 769,
            "max" : [
                1.0000003576278687,
                1.2229877710342407,
                3.427940845489502
            ],
            "min" : [
                -0.43713632225990295,
                -31.048667907714844,
                -3.4395995140075684
            ],
            "type" : "VEC3"
        },
        {
            "bufferView" : 1,
            "componentType" : 5126,
            "count" : 769,
            "type" : "VEC3"
        },
        {
            "bufferView" : 2,
            "componentType" : 5123,
            "count" : 1104,
            "type" : "SCALAR"
        },
        {
            "bufferView" : 3,
            "componentType" : 5126,
            "count" : 120,
            "max" : [
                145.8331756591797,
                1,
                4.375595569610596
            ],
            "min" : [
                -39.49736404418945,
                -1,
                -1.967712640762329
            ],
            "type" : "VEC3"
        },
        {
            "bufferView" : 4,
            "componentType" : 5126,
            "count" : 120,
            "type" : "VEC3"
        },
        {
            "bufferView" : 5,
            "componentType" : 5123,
            "count" : 180,
            "type" : "SCALAR"
        },
        {
            "bufferView" : 6,
            "componentType" : 5126,
            "count" : 624,
            "max" : [
                14.588789939880371,
                16.957305908203125,
                53.5477409362793
            ],
            "min" : [
                -5.9298577308654785,
                -16.948251724243164,
                -38.35381317138672
            ],
            "type" : "VEC3"
        },
        {
            "bufferView" : 7,
            "componentType" : 5126,
            "count" : 624,
            "type" : "VEC3"
        },
        {
            "bufferView" : 8,
            "componentType" : 5123,
            "count" : 1008,
            "type" : "SCALAR"
        },
        {
            "bufferView" : 9,
            "componentType" : 5126,
            "count" : 88,
            "max" : [
                1.1593459844589233,
                1,
                1
            ],
            "min" : [
                -1.1699689626693726,
                -1,
                -1
            ],
            "type" : "VEC3"
        },
        {
            "bufferView" : 10,
            "componentType" : 5126,
            "count" : 88,
            "type" : "VEC3"
        },
        {
            "bufferView" : 11,
            "componentType" : 5123,
            "count" : 132,
            "type" : "SCALAR"
        },
        {
            "bufferView" : 12,
            "componentType" : 5126,
            "count" : 24,
            "max" : [
                1,
                0.054426729679107666,
                1
            ],
            "min" : [
                -1,
                -0.03377467393875122,
                -1
            ],
            "type" : "VEC3"
        },
        {
            "bufferView" : 13,
            "componentType" : 5126,
            "count" : 24,
            "type" : "VEC3"
        },
        {
            "bufferView" : 14,
            "componentType" : 5123,
            "count" : 36,
            "type" : "SCALAR"
        },
        {
            "bufferView" : 15,
            "componentType" : 5126,
            "count" : 388,
            "max" : [
                27.980815887451172,
                12.98502254486084,
                38.97479248046875
            ],
            "min" : [
                -19.85386085510254,
                -12.800002098083496,
                -20.90000343322754
            ],
            "type" : "VEC3"
        },
        {
            "bufferView" : 16,
            "componentType" : 5126,
            "count" : 388,
            "type" : "VEC3"
        },
        {
            "bufferView" : 17,
            "componentType" : 5123,
            "count" : 624,
            "type" : "SCALAR"
        },
        {
            "bufferView" : 18,
            "componentType" : 5126,
            "count" : 84,
            "max" : [
                0.9214259386062622,
                3.4553916454315186,
                0.9214258790016174
            ],
            "min" : [
                -0.921425998210907,
                0.571019172668457,
                -0.9214259386062622
            ],
            "type" : "VEC3"
        },
        {
            "bufferView" : 19,
            "componentType" : 5126,
            "count" : 84,
            "type" : "VEC3"
        },
        {
            "bufferView" : 20,
            "componentType" : 5123,
            "count" : 492,
            "type" : "SCALAR"
        },
        {
            "bufferView" : 21,
            "componentType" : 5126,
            "count" : 96,
            "max" : [
                0.9710268378257751,
                3.456050157546997,
                0.9710267782211304
            ],
            "min" : [
                -0.9710267782211304,
                0.8365968465805054,
                -0.9710267186164856
            ],
            "type" : "VEC3"
        },
        {
            "bufferView" : 22,
            "componentType" : 5126,
            "count" : 96,
            "type" : "VEC3"
        },
        {
            "bufferView" : 23,
            "componentType" : 5123,
            "count" : 288,
            "type" : "SCALAR"
        },
        {
            "bufferView" : 24,
            "componentType" : 5126,
            "count" : 240,
            "max" : [
                1.064812183380127,
                3.5258326530456543,
                1.064812421798706
            ],
            "min" : [
                -1.0648123025894165,
                0.7510883808135986,
                -1.0648123025894165
            ],
            "type" : "VEC3"
        },
        {
            "bufferView" : 25,
            "componentType" : 5126,
            "count" : 240,
            "type" : "VEC3"
        },
        {
            "bufferView" : 26,
            "componentType" : 5123,
            "count" : 1440,
            "type" : "SCALAR"
        },
        {
            "bufferView" : 27,
            "componentType" : 5126,
            "count" : 17,
            "max" : [
                0.9999998807907104,
                -2.6061286462208955e-10,
                0.9999999403953552
            ],
            "min" : [
                -0.9999998807907104,
                -0.1747773289680481,
                -0.9999999403953552
            ],
            "type" : "VEC3"
        },
        {
            "bufferView" : 28,
            "componentType" : 5126,
            "count" : 17,
            "type" : "VEC3"
        },
        {
            "bufferView" : 29,
            "componentType" : 5123,
            "count" : 45,
            "type" : "SCALAR"
        },
        {
            "bufferView" : 30,
            "componentType" : 5126,
            "count" : 84,
            "max" : [
                1.10616135597229,
                1,
                4.761386871337891
            ],
            "min" : [
                -1.10616135597229,
                -1,
                -4.761386871337891
            ],
            "type" : "VEC3"
        },
        {
            "bufferView" : 31,
            "componentType" : 5126,
            "count" : 84,
            "type" : "VEC3"
        },
        {
            "bufferView" : 32,
            "componentType" : 5123,
            "count" : 474,
            "type" : "SCALAR"
        },
        {
            "bufferView" : 33,
            "componentType" : 5126,
            "count" : 312,
            "max" : [
                1.109890341758728,
                3.7779946327209473,
                1.109890103340149
            ],
            "min" : [
                -1.109890341758728,
                0,
                -1.109890103340149
            ],
            "type" : "VEC3"
        },
        {
            "bufferView" : 34,
            "componentType" : 5126,
            "count" : 312,
            "type" : "VEC3"
        },
        {
            "bufferView" : 35,
            "componentType" : 5123,
            "count" : 1632,
            "type" : "SCALAR"
        }
    ],
    "bufferViews" : [
        {
            "buffer" : 0,
            "byteLength" : 9228,
            "byteOffset" : 0
        },
        {
            "buffer" : 0,
            "byteLength" : 9228,
            "byteOffset" : 9228
        },
        {
            "buffer" : 0,
            "byteLength" : 2208,
            "byteOffset" : 18456
        },
        {
            "buffer" : 0,
            "byteLength" : 1440,
            "byteOffset" : 20664
        },
        {
            "buffer" : 0,
            "byteLength" : 1440,
            "byteOffset" : 22104
        },
        {
            "buffer" : 0,
            "byteLength" : 360,
            "byteOffset" : 23544
        },
        {
            "buffer" : 0,
            "byteLength" : 7488,
            "byteOffset" : 23904
        },
        {
            "buffer" : 0,
            "byteLength" : 7488,
            "byteOffset" : 31392
        },
        {
            "buffer" : 0,
            "byteLength" : 2016,
            "byteOffset" : 38880
        },
        {
            "buffer" : 0,
            "byteLength" : 1056,
            "byteOffset" : 40896
        },
        {
            "buffer" : 0,
            "byteLength" : 1056,
            "byteOffset" : 41952
        },
        {
            "buffer" : 0,
            "byteLength" : 264,
            "byteOffset" : 43008
        },
        {
            "buffer" : 0,
            "byteLength" : 288,
            "byteOffset" : 43272
        },
        {
            "buffer" : 0,
            "byteLength" : 288,
            "byteOffset" : 43560
        },
        {
            "buffer" : 0,
            "byteLength" : 72,
            "byteOffset" : 43848
        },
        {
            "buffer" : 0,
            "byteLength" : 4656,
            "byteOffset" : 43920
        },
        {
            "buffer" : 0,
            "byteLength" : 4656,
            "byteOffset" : 48576
        },
        {
            "buffer" : 0,
            "byteLength" : 1248,
            "byteOffset" : 53232
        },
        {
            "buffer" : 0,
            "byteLength" : 1008,
            "byteOffset" : 54480
        },
        {
            "buffer" : 0,
            "byteLength" : 1008,
            "byteOffset" : 55488
        },
        {
            "buffer" : 0,
            "byteLength" : 984,
            "byteOffset" : 56496
        },
        {
            "buffer" : 0,
            "byteLength" : 1152,
            "byteOffset" : 57480
        },
        {
            "buffer" : 0,
            "byteLength" : 1152,
            "byteOffset" : 58632
        },
        {
            "buffer" : 0,
            "byteLength" : 576,
            "byteOffset" : 59784
        },
        {
            "buffer" : 0,
            "byteLength" : 2880,
            "byteOffset" : 60360
        },
        {
            "buffer" : 0,
            "byteLength" : 2880,
            "byteOffset" : 63240
        },
        {
            "buffer" : 0,
            "byteLength" : 2880,
            "byteOffset" : 66120
        },
        {
            "buffer" : 0,
            "byteLength" : 204,
            "byteOffset" : 69000
        },
        {
            "buffer" : 0,
            "byteLength" : 204,
            "byteOffset" : 69204
        },
        {
            "buffer" : 0,
            "byteLength" : 90,
            "byteOffset" : 69408
        },
        {
            "buffer" : 0,
            "byteLength" : 1008,
            "byteOffset" : 69500
        },
        {
            "buffer" : 0,
            "byteLength" : 1008,
            "byteOffset" : 70508
        },
        {
            "buffer" : 0,
            "byteLength" : 948,
            "byteOffset" : 71516
        },
        {
            "buffer" : 0,
            "byteLength" : 3744,
            "byteOffset" : 72464
        },
        {
            "buffer" : 0,
            "byteLength" : 3744,
            "byteOffset" : 76208
        },
        {
            "buffer" : 0,
            "byteLength" : 3264,
            "byteOffset" : 79952
        }
    ],
    "buffers" : [
        {
            "byteLength" : 83216,
            "uri" : "data:application/octet-stream;base64,"
        }
    ]
}
